<svg version="1.1" xmlns="http://www.w3.org/2000/svg" viewBox="0 0 1490.2727272727275 646.909090909091" width="1490.2727272727275" height="646.909090909091">
  <!-- svg-source:excalidraw -->
  
  <defs>
    <style class="style-fonts">
      @font-face {
        font-family: "Virgil";
        src: url("https://excalidraw.com/Virgil.woff2");
      }
      @font-face {
        font-family: "Cascadia";
        src: url("https://excalidraw.com/Cascadia.woff2");
      }
    </style>
  </defs>
  <rect x="0" y="0" width="1490.2727272727275" height="646.909090909091" fill="#ffffff"></rect><g stroke-linecap="round" transform="translate(861.1818181818186 196.90909090909088) rotate(0 80.5 35)"><path d="M17.5 0 M17.5 0 C64.1 2.29, 106.77 -0.68, 143.5 0 M17.5 0 C61.63 0.22, 104.13 0.42, 143.5 0 M143.5 0 C156.27 1.91, 162.72 4.02, 161 17.5 M143.5 0 C156.57 -0.13, 162.01 6.67, 161 17.5 M161 17.5 C159.12 25.79, 160.5 36.77, 161 52.5 M161 17.5 C160.55 24.48, 160.96 33.2, 161 52.5 M161 52.5 C160.96 63.1, 154.7 69.01, 143.5 70 M161 52.5 C161.02 62.65, 153.61 69.06, 143.5 70 M143.5 70 C114.85 68.05, 88.45 70.07, 17.5 70 M143.5 70 C110.23 71.64, 77.89 71.79, 17.5 70 M17.5 70 C6.65 71.81, 1.33 65.89, 0 52.5 M17.5 70 C7.58 69.81, -1.41 63.8, 0 52.5 M0 52.5 C0.24 43.98, -0.18 34.84, 0 17.5 M0 52.5 C0.35 43.34, 0.18 33.51, 0 17.5 M0 17.5 C1.33 7.61, 7.1 -1.22, 17.5 0 M0 17.5 C0.51 8.08, 4.23 2.21, 17.5 0" stroke="#000000" stroke-width="1" fill="none"></path></g><g transform="translate(899.881860906428 219.40909090909088) rotate(0 41.799957275390625 12)"><text x="41.799957275390625" y="0" font-family="Virgil, Segoe UI Emoji" font-size="20px" fill="#000000" text-anchor="middle" style="white-space: pre;" direction="ltr" dominant-baseline="text-before-edge">Employee</text></g><g stroke-linecap="round" transform="translate(1147.6818181818185 323.9090909090909) rotate(0 80.5 35)"><path d="M17.5 0 M17.5 0 C64.1 2.29, 106.77 -0.68, 143.5 0 M17.5 0 C61.63 0.22, 104.13 0.42, 143.5 0 M143.5 0 C156.27 1.91, 162.72 4.02, 161 17.5 M143.5 0 C156.57 -0.13, 162.01 6.67, 161 17.5 M161 17.5 C159.12 25.79, 160.5 36.77, 161 52.5 M161 17.5 C160.55 24.48, 160.96 33.2, 161 52.5 M161 52.5 C160.96 63.1, 154.7 69.01, 143.5 70 M161 52.5 C161.02 62.65, 153.61 69.06, 143.5 70 M143.5 70 C114.85 68.05, 88.45 70.07, 17.5 70 M143.5 70 C110.23 71.64, 77.89 71.79, 17.5 70 M17.5 70 C6.65 71.81, 1.33 65.89, 0 52.5 M17.5 70 C7.58 69.81, -1.41 63.8, 0 52.5 M0 52.5 C0.24 43.98, -0.18 34.84, 0 17.5 M0 52.5 C0.35 43.34, 0.18 33.51, 0 17.5 M0 17.5 C1.33 7.61, 7.1 -1.22, 17.5 0 M0 17.5 C0.51 8.08, 4.23 2.21, 17.5 0" stroke="#000000" stroke-width="1" fill="none"></path></g><g transform="translate(1171.241869146174 346.4090909090909) rotate(0 56.93994903564453 12)"><text x="56.93994903564453" y="0" font-family="Virgil, Segoe UI Emoji" font-size="20px" fill="#000000" text-anchor="middle" style="white-space: pre;" direction="ltr" dominant-baseline="text-before-edge">Department</text></g><g stroke-linecap="round"><g transform="translate(1029.1818181818185 230.90909090909088) rotate(0 -15.818469852415774 -34.33181782952269)"><path d="M0.6 0.14 C7.23 -11.17, 52.68 -61.8, 39.96 -68.01 C27.24 -74.22, -56.74 -42.25, -75.73 -37.12 M-0.54 -0.83 C6.44 -12.01, 54.28 -61.19, 42.13 -67 C29.97 -72.82, -54.2 -40.87, -73.46 -35.71" stroke="#000000" stroke-width="1" fill="none"></path></g><g transform="translate(1029.1818181818185 230.90909090909088) rotate(0 -15.818469852415774 -34.33181782952269)"><path d="M-49.59 -55.92 C-58.95 -50.25, -64.39 -41.57, -73.3 -35.76 M-49.46 -54.05 C-57.18 -46.64, -66.98 -41.76, -72.75 -35.23" stroke="#000000" stroke-width="1" fill="none"></path></g><g transform="translate(1029.1818181818185 230.90909090909088) rotate(0 -15.818469852415774 -34.33181782952269)"><path d="M-43.24 -36.4 C-54.57 -36.83, -62 -34.27, -73.3 -35.76 M-43.11 -34.53 C-53.06 -33.84, -65.06 -35.72, -72.75 -35.23" stroke="#000000" stroke-width="1" fill="none"></path></g></g><mask></mask><g transform="translate(1038.1818181818185 129.90909090909088) rotate(0 40.449974060058594 12)"><text x="0" y="0" font-family="Virgil, Segoe UI Emoji" font-size="20px" fill="#000000" text-anchor="start" style="white-space: pre;" direction="ltr" dominant-baseline="text-before-edge">Manager</text></g><g stroke-linecap="round"><g transform="translate(1036.1818181818185 267.9090909090909) rotate(0 53.717609114218476 25.186924887187757)"><path d="M0.79 -0.12 C18.84 8.22, 89.98 41.93, 107.69 50.39 M-0.25 -1.23 C17.75 7.23, 89.34 42.77, 107.1 51.6" stroke="#000000" stroke-width="1" fill="none"></path></g><g transform="translate(1036.1818181818185 267.9090909090909) rotate(0 53.717609114218476 25.186924887187757)"><path d="M77.09 49.4 C83.73 48.95, 91.62 48.35, 105.85 51.7 M76.57 48.46 C84.2 49.84, 91.21 48.88, 106.82 52.52" stroke="#000000" stroke-width="1" fill="none"></path></g><g transform="translate(1036.1818181818185 267.9090909090909) rotate(0 53.717609114218476 25.186924887187757)"><path d="M86.21 31.02 C90.63 35.23, 96.24 39.22, 105.85 51.7 M85.69 30.08 C91.34 35.52, 96.35 38.59, 106.82 52.52" stroke="#000000" stroke-width="1" fill="none"></path></g></g><mask></mask><g transform="translate(1084.7318441217599 260.4090909090909) rotate(0 39.02997589111328 12)"><text x="0" y="0" font-family="Virgil, Segoe UI Emoji" font-size="20px" fill="#000000" text-anchor="start" style="white-space: pre;" direction="ltr" dominant-baseline="text-before-edge">Work in </text></g><g transform="translate(884.1818181818186 277.9090909090909) rotate(0 138.46990966796875 84)"><text x="0" y="0" font-family="Virgil, Segoe UI Emoji" font-size="20px" fill="#000000" text-anchor="start" style="white-space: pre;" direction="ltr" dominant-baseline="text-before-edge">- firstname</text><text x="0" y="24" font-family="Virgil, Segoe UI Emoji" font-size="20px" fill="#000000" text-anchor="start" style="white-space: pre;" direction="ltr" dominant-baseline="text-before-edge">- lastname</text><text x="0" y="48" font-family="Virgil, Segoe UI Emoji" font-size="20px" fill="#000000" text-anchor="start" style="white-space: pre;" direction="ltr" dominant-baseline="text-before-edge">- job title</text><text x="0" y="72" font-family="Virgil, Segoe UI Emoji" font-size="20px" fill="#000000" text-anchor="start" style="white-space: pre;" direction="ltr" dominant-baseline="text-before-edge">- contractStartDate</text><text x="0" y="96" font-family="Virgil, Segoe UI Emoji" font-size="20px" fill="#000000" text-anchor="start" style="white-space: pre;" direction="ltr" dominant-baseline="text-before-edge">- contractEndDate</text><text x="0" y="120" font-family="Virgil, Segoe UI Emoji" font-size="20px" fill="#000000" text-anchor="start" style="white-space: pre;" direction="ltr" dominant-baseline="text-before-edge">- gender (MALE or FEMALE)</text><text x="0" y="144" font-family="Virgil, Segoe UI Emoji" font-size="20px" fill="#000000" text-anchor="start" style="white-space: pre;" direction="ltr" dominant-baseline="text-before-edge"></text></g><g transform="translate(1182.5018712824044 398.4090909090909) rotate(0 34.01997375488281 12)"><text x="0" y="0" font-family="Virgil, Segoe UI Emoji" font-size="20px" fill="#000000" text-anchor="start" style="white-space: pre;" direction="ltr" dominant-baseline="text-before-edge">- Name</text></g><g stroke-linecap="round" transform="translate(838.4545454545456 10) rotate(0 320.909090909091 219.409090909091)"><path d="M32 0 M32 0 C218.81 2.05, 406.83 2.35, 609.82 0 M32 0 C247.37 1.89, 462.3 1.9, 609.82 0 M609.82 0 C631.25 -0.64, 640.05 10.9, 641.82 32 M609.82 0 C632.75 0.33, 643.62 12.91, 641.82 32 M641.82 32 C640.71 146.11, 641 260.12, 641.82 406.82 M641.82 32 C642.2 121.88, 643.06 212.26, 641.82 406.82 M641.82 406.82 C640.78 429.09, 630.25 439.27, 609.82 438.82 M641.82 406.82 C641.07 428.22, 632.38 436.88, 609.82 438.82 M609.82 438.82 C451.48 438.58, 292.1 437.84, 32 438.82 M609.82 438.82 C454.04 436.46, 298.4 436.68, 32 438.82 M32 438.82 C10.28 439.78, -0.74 427.71, 0 406.82 M32 438.82 C12.94 437.06, -1.51 427.18, 0 406.82 M0 406.82 C-1.9 281.25, -0.1 155.29, 0 32 M0 406.82 C0.93 311.17, 1.5 215.9, 0 32 M0 32 C-1.61 11.96, 12.59 0.28, 32 0 M0 32 C-0.66 10.69, 12.45 1.95, 32 0" stroke="#000000" stroke-width="1" fill="none"></path></g><g transform="translate(1133.7272727272734 16.818181818181813) rotate(0 26.989974975585938 12)"><text x="0" y="0" font-family="Virgil, Segoe UI Emoji" font-size="20px" fill="#000000" text-anchor="start" style="white-space: pre;" direction="ltr" dominant-baseline="text-before-edge">Model</text></g><g stroke-linecap="round" transform="translate(10 46.90909090909099) rotate(0 262.5 295)"><path d="M32 0 M32 0 C194.32 -1.02, 358.36 -2.15, 493 0 M32 0 C187.14 -0.66, 341.95 -0.81, 493 0 M493 0 C514.71 -1.88, 524.76 11.41, 525 32 M493 0 C515.44 -0.69, 525.72 12.05, 525 32 M525 32 C523.61 177.75, 524.09 324.68, 525 558 M525 32 C524.02 142.35, 523.88 253.72, 525 558 M525 558 C526.71 579.76, 514.57 591.54, 493 590 M525 558 C524.59 580.97, 513.05 591.57, 493 590 M493 590 C363.21 590.59, 234.84 590.28, 32 590 M493 590 C383.2 589.77, 273.26 590.06, 32 590 M32 590 C9.17 589.54, -1.07 578.29, 0 558 M32 590 C10.06 589.83, -0.48 577.61, 0 558 M0 558 C-0.01 349.3, 0.61 140.83, 0 32 M0 558 C-0.66 381.3, -0.74 205, 0 32 M0 32 C-0.07 8.7, 11.97 1.97, 32 0 M0 32 C0.34 11.83, 11.83 1.4, 32 0" stroke="#000000" stroke-width="1" fill="none"></path></g><g transform="translate(224 56.90909090909099) rotate(0 47.117897033691406 30)"><text x="0" y="0" font-family="Virgil, Segoe UI Emoji" font-size="50.61226546868974px" fill="#000000" text-anchor="start" style="white-space: pre;" direction="ltr" dominant-baseline="text-before-edge">API</text></g><g transform="translate(65.63636363636363 120.40909090909099) rotate(0 198.6318817138672 250)"><text x="0" y="0" font-family="Virgil, Segoe UI Emoji" font-size="16px" fill="#000000" text-anchor="start" style="white-space: pre;" direction="ltr" dominant-baseline="text-before-edge">- Create/Update/Delete/Get/List all Department</text><text x="0" y="20" font-family="Virgil, Segoe UI Emoji" font-size="16px" fill="#000000" text-anchor="start" style="white-space: pre;" direction="ltr" dominant-baseline="text-before-edge">- Create/Update/Delete/Get Employee</text><text x="0" y="40" font-family="Virgil, Segoe UI Emoji" font-size="16px" fill="#000000" text-anchor="start" style="white-space: pre;" direction="ltr" dominant-baseline="text-before-edge">- Get Employees working in a Department</text><text x="0" y="60" font-family="Virgil, Segoe UI Emoji" font-size="16px" fill="#000000" text-anchor="start" style="white-space: pre;" direction="ltr" dominant-baseline="text-before-edge">- Get Employees under a given manager</text><text x="0" y="80" font-family="Virgil, Segoe UI Emoji" font-size="16px" fill="#000000" text-anchor="start" style="white-space: pre;" direction="ltr" dominant-baseline="text-before-edge">- Search Employee with possible criteria:</text><text x="0" y="100" font-family="Virgil, Segoe UI Emoji" font-size="16px" fill="#000000" text-anchor="start" style="white-space: pre;" direction="ltr" dominant-baseline="text-before-edge">    - firstname (case insensitive pattern)</text><text x="0" y="120" font-family="Virgil, Segoe UI Emoji" font-size="16px" fill="#000000" text-anchor="start" style="white-space: pre;" direction="ltr" dominant-baseline="text-before-edge">    - lastname (case insensitive pattern)</text><text x="0" y="140" font-family="Virgil, Segoe UI Emoji" font-size="16px" fill="#000000" text-anchor="start" style="white-space: pre;" direction="ltr" dominant-baseline="text-before-edge">    - Department (case insensitive pattern)</text><text x="0" y="160" font-family="Virgil, Segoe UI Emoji" font-size="16px" fill="#000000" text-anchor="start" style="white-space: pre;" direction="ltr" dominant-baseline="text-before-edge">    - Job Title (case insensitive pattern)</text><text x="0" y="180" font-family="Virgil, Segoe UI Emoji" font-size="16px" fill="#000000" text-anchor="start" style="white-space: pre;" direction="ltr" dominant-baseline="text-before-edge">    - contractActiveDate</text><text x="0" y="200" font-family="Virgil, Segoe UI Emoji" font-size="16px" fill="#000000" text-anchor="start" style="white-space: pre;" direction="ltr" dominant-baseline="text-before-edge">    - Managed By</text><text x="0" y="220" font-family="Virgil, Segoe UI Emoji" font-size="16px" fill="#000000" text-anchor="start" style="white-space: pre;" direction="ltr" dominant-baseline="text-before-edge"></text><text x="0" y="240" font-family="Virgil, Segoe UI Emoji" font-size="16px" fill="#000000" text-anchor="start" style="white-space: pre;" direction="ltr" dominant-baseline="text-before-edge">Demo with REST Client tools</text><text x="0" y="260" font-family="Virgil, Segoe UI Emoji" font-size="16px" fill="#000000" text-anchor="start" style="white-space: pre;" direction="ltr" dominant-baseline="text-before-edge"></text><text x="0" y="280" font-family="Virgil, Segoe UI Emoji" font-size="16px" fill="#000000" text-anchor="start" style="white-space: pre;" direction="ltr" dominant-baseline="text-before-edge">Extensions:</text><text x="0" y="300" font-family="Virgil, Segoe UI Emoji" font-size="16px" fill="#000000" text-anchor="start" style="white-space: pre;" direction="ltr" dominant-baseline="text-before-edge">- Validation of employee creation form:</text><text x="0" y="320" font-family="Virgil, Segoe UI Emoji" font-size="16px" fill="#000000" text-anchor="start" style="white-space: pre;" direction="ltr" dominant-baseline="text-before-edge">   - Mandatory fields : firstname, lastname,</text><text x="0" y="340" font-family="Virgil, Segoe UI Emoji" font-size="16px" fill="#000000" text-anchor="start" style="white-space: pre;" direction="ltr" dominant-baseline="text-before-edge">contractStartDate</text><text x="0" y="360" font-family="Virgil, Segoe UI Emoji" font-size="16px" fill="#000000" text-anchor="start" style="white-space: pre;" direction="ltr" dominant-baseline="text-before-edge">   - Job Title : Each words must start with </text><text x="0" y="380" font-family="Virgil, Segoe UI Emoji" font-size="16px" fill="#000000" text-anchor="start" style="white-space: pre;" direction="ltr" dominant-baseline="text-before-edge">a capital letter</text><text x="0" y="400" font-family="Virgil, Segoe UI Emoji" font-size="16px" fill="#000000" text-anchor="start" style="white-space: pre;" direction="ltr" dominant-baseline="text-before-edge">- Concurrent Access Management</text><text x="0" y="420" font-family="Virgil, Segoe UI Emoji" font-size="16px" fill="#000000" text-anchor="start" style="white-space: pre;" direction="ltr" dominant-baseline="text-before-edge">- JUnit tests with mocks</text><text x="0" y="440" font-family="Virgil, Segoe UI Emoji" font-size="16px" fill="#000000" text-anchor="start" style="white-space: pre;" direction="ltr" dominant-baseline="text-before-edge">- Swagger</text><text x="0" y="460" font-family="Virgil, Segoe UI Emoji" font-size="16px" fill="#000000" text-anchor="start" style="white-space: pre;" direction="ltr" dominant-baseline="text-before-edge">   </text><text x="0" y="480" font-family="Virgil, Segoe UI Emoji" font-size="16px" fill="#000000" text-anchor="start" style="white-space: pre;" direction="ltr" dominant-baseline="text-before-edge"></text></g><g transform="translate(1028.5154786543412 262.81818181818187) rotate(0 2.7099990844726562 12)"><text x="0" y="0" font-family="Virgil, Segoe UI Emoji" font-size="20px" fill="#000000" text-anchor="start" style="white-space: pre;" direction="ltr" dominant-baseline="text-before-edge">1</text></g><g transform="translate(1153.9263645518913 297.36363636363626) rotate(0 17.519989013671875 12)"><text x="0" y="0" font-family="Virgil, Segoe UI Emoji" font-size="20px" fill="#000000" text-anchor="start" style="white-space: pre;" direction="ltr" dominant-baseline="text-before-edge">0..*</text></g><g transform="translate(1036.6536372791638 223.72727272727263) rotate(0 15.069992065429688 12)"><text x="0" y="0" font-family="Virgil, Segoe UI Emoji" font-size="20px" fill="#000000" text-anchor="start" style="white-space: pre;" direction="ltr" dominant-baseline="text-before-edge">0..1</text></g><g transform="translate(917.9300079345704 169.18181818181802) rotate(0 17.519989013671875 12)"><text x="0" y="0" font-family="Virgil, Segoe UI Emoji" font-size="20px" fill="#000000" text-anchor="start" style="white-space: pre;" direction="ltr" dominant-baseline="text-before-edge">0..*</text></g><g stroke-linecap="round"><g transform="translate(1139.5017799323477 499.9088981839142) rotate(0 44.07603355806987 47.68201090699495)" fill-rule="evenodd"><path d="M0.88 -0.71 L-0.12 94.66 L2.62 97.18 L20.72 103.94 L46.66 106.15 L70.67 102.13 L80.4 99.57 L86.38 96.96 L88.25 -2.65 L86.07 1.6 L86.24 -2.54 L78.33 -7.12 L43.19 -10.47 L12.4 -6.77 L2.45 -4.18 L-0.35 1.23" stroke="none" stroke-width="0" fill="#228be6" fill-rule="evenodd"></path><path d="M0.74 0.83 C0.68 15.31, -0.42 70.59, -0.43 86.43 C-0.45 102.26, -0.36 93.68, 0.64 95.85 C1.65 98.02, 2.32 98.32, 5.6 99.47 C8.87 100.62, 13.59 101.89, 20.3 102.74 C27.01 103.59, 37.36 104.42, 45.87 104.57 C54.37 104.72, 64.71 104.47, 71.33 103.65 C77.95 102.82, 82.95 100.97, 85.57 99.63 C88.19 98.28, 86.57 97.77, 87.06 95.59 C87.54 93.41, 88.21 101.21, 88.5 86.56 C88.8 71.92, 89.07 22.22, 88.82 7.7 C88.56 -6.82, 88 1.36, 87 -0.56 C86 -2.49, 85.62 -2.69, 82.81 -3.84 C80.01 -4.98, 76.94 -6.6, 70.18 -7.43 C63.42 -8.27, 50.52 -8.64, 42.27 -8.82 C34.02 -9.01, 26.99 -9.55, 20.7 -8.56 C14.4 -7.56, 7.99 -4.13, 4.51 -2.84 C1.04 -1.56, 0.67 -1.49, -0.14 -0.84 C-0.94 -0.2, -0.17 0.78, -0.32 1.01 M-0.33 0.22 C0.01 14.37, 1.81 68.35, 1.9 84.5 C1.99 100.66, 0.07 94.54, 0.21 97.17 C0.35 99.79, -0.37 99.34, 2.74 100.25 C5.84 101.17, 11.5 102.11, 18.82 102.64 C26.15 103.17, 37.93 103.42, 46.69 103.42 C55.45 103.42, 65.11 103.25, 71.39 102.64 C77.66 102.03, 81.46 101.12, 84.33 99.75 C87.2 98.38, 87.75 96.77, 88.6 94.44 C89.45 92.1, 89.28 99.99, 89.45 85.74 C89.61 71.49, 89.66 23.42, 89.59 8.94 C89.51 -5.53, 90 1.1, 89 -1.1 C87.99 -3.31, 86.79 -3.16, 83.56 -4.28 C80.34 -5.4, 76.49 -7.02, 69.63 -7.85 C62.76 -8.67, 50.37 -9.28, 42.37 -9.25 C34.37 -9.22, 28.07 -8.33, 21.61 -7.68 C15.16 -7.02, 7.5 -6.44, 3.65 -5.31 C-0.2 -4.18, -1.16 -2.08, -1.47 -0.89 C-1.78 0.29, 1.72 1.8, 1.79 1.79" stroke="#0a11d3" stroke-width="1" fill="none"></path></g></g><mask></mask><g stroke-linecap="round"><g transform="translate(1140.1891415218452 565.1990262147018) rotate(0 44.46532864089261 4.486408378244278)"><path d="M-0.72 0.38 C-0.35 0.89, 0.6 2.87, 2.96 3.9 C5.31 4.94, 9.62 5.85, 13.41 6.57 C17.2 7.29, 20.35 7.81, 25.7 8.24 C31.05 8.67, 38.14 9.06, 45.51 9.14 C52.88 9.22, 63.35 9.53, 69.91 8.73 C76.47 7.94, 81.94 5.83, 84.87 4.37 C87.8 2.92, 86.84 0.91, 87.46 -0.01 M1.1 -0.47 C1.3 0.17, 0.32 4.1, 2.34 5.44 C4.36 6.78, 9.27 7, 13.2 7.57 C17.13 8.14, 20.28 8.55, 25.93 8.86 C31.59 9.16, 39.65 9.55, 47.11 9.42 C54.58 9.28, 64.37 9.02, 70.73 8.03 C77.1 7.04, 82.14 4.85, 85.29 3.49 C88.45 2.13, 89.35 0.33, 89.65 -0.12" stroke="#0a11d3" stroke-width="1" fill="none"></path></g></g><mask></mask><g stroke-linecap="round"><g transform="translate(1139.0954000097836 532.12487165263) rotate(0 44.07145747254742 4.472872611036337)"><path d="M0.63 0 C1.31 0.49, 1.43 2.25, 3.38 3.29 C5.33 4.34, 8.81 5.31, 12.34 6.25 C15.88 7.2, 19.07 8.33, 24.6 8.96 C30.12 9.58, 37.83 9.99, 45.5 9.99 C53.17 10, 64.13 9.98, 70.62 8.97 C77.11 7.96, 81.44 5.61, 84.45 3.93 C87.45 2.24, 87.85 -0.5, 88.64 -1.15 M-0.5 -1.05 C0.18 -0.44, 0.97 3.15, 2.99 4.51 C5 5.87, 8.03 6.18, 11.57 7.09 C15.12 7.99, 18.33 9.34, 24.26 9.95 C30.18 10.56, 39.18 10.98, 47.1 10.73 C55.03 10.47, 65.55 9.71, 71.81 8.39 C78.06 7.08, 81.98 4.52, 84.65 2.81 C87.31 1.1, 87.24 -1.21, 87.79 -1.86" stroke="#0a11d3" stroke-width="1" fill="none"></path></g></g><mask></mask><g stroke-linecap="round" transform="translate(1137.9745773236218 491.8842019568175) rotate(0 43.825373054270926 8.863351988406805)"><path d="M48.61 -0.6 C57.6 -0.63, 68.94 1.28, 75.54 2.62 C82.14 3.96, 87.53 5.38, 88.2 7.42 C88.86 9.47, 85.36 13.34, 79.53 14.89 C73.71 16.43, 62.44 16.27, 53.25 16.69 C44.06 17.12, 32.71 18.33, 24.37 17.45 C16.04 16.57, 7.06 13.43, 3.24 11.42 C-0.59 9.42, -1.5 7.02, 1.41 5.43 C4.32 3.84, 12.08 2.68, 20.7 1.89 C29.31 1.1, 47.3 0.79, 53.1 0.66 C58.91 0.54, 55.64 1.23, 55.54 1.14 M53.08 -0.57 C62.03 -0.23, 71.94 2.07, 77.58 3.91 C83.22 5.74, 87.2 8.48, 86.9 10.44 C86.6 12.41, 82.14 14.52, 75.78 15.68 C69.43 16.83, 57.93 17.26, 48.77 17.39 C39.6 17.52, 28.75 17.58, 20.79 16.47 C12.82 15.36, 3.73 12.75, 0.97 10.72 C-1.79 8.7, 0.77 6.12, 4.24 4.34 C7.71 2.55, 13.94 0.51, 21.79 0.01 C29.63 -0.48, 46.07 1.51, 51.3 1.36 C56.53 1.21, 52.94 -1.09, 53.17 -0.9" stroke="none" stroke-width="0" fill="#fff"></path><path d="M43.37 -0.94 C52.51 -0.96, 64.94 0.44, 72.32 1.69 C79.7 2.94, 86.01 4.59, 87.67 6.56 C89.33 8.54, 87.15 11.64, 82.28 13.52 C77.42 15.41, 67.29 17.34, 58.5 17.89 C49.7 18.43, 38.28 17.43, 29.5 16.81 C20.72 16.19, 10.54 15.7, 5.83 14.17 C1.12 12.64, -0.32 9.69, 1.23 7.62 C2.77 5.55, 7.21 3.04, 15.09 1.75 C22.98 0.45, 42.33 -0.01, 48.52 -0.14 C54.71 -0.26, 52.23 0.82, 52.24 0.99 M28.35 1.16 C36.78 0.17, 51.27 -0.39, 60.26 0.06 C69.25 0.52, 77.68 2.29, 82.28 3.89 C86.87 5.49, 89.61 7.67, 87.84 9.68 C86.07 11.7, 79.17 14.46, 71.65 15.97 C64.14 17.48, 52.41 18.94, 42.75 18.76 C33.09 18.58, 20.76 16.49, 13.68 14.89 C6.61 13.29, 1.71 10.97, 0.31 9.18 C-1.1 7.39, 0.34 5.75, 5.25 4.13 C10.16 2.51, 25.83 -0.2, 29.76 -0.54 C33.7 -0.87, 28.52 1.76, 28.85 2.1" stroke="#0a11d3" stroke-width="1" fill="none"></path></g><g stroke-linecap="round" transform="translate(1209.4843096242025 516.460004833951) rotate(0 6.423028523489847 6.970952181208077)"><path d="M8.04 0.12 C9.49 0.4, 11.52 0.81, 12.41 2.21 C13.31 3.61, 13.79 7.01, 13.42 8.51 C13.06 10.02, 11.3 10.24, 10.25 11.26 C9.19 12.27, 8.43 14.55, 7.1 14.61 C5.77 14.67, 3.5 12.78, 2.27 11.62 C1.04 10.47, -0.18 8.92, -0.3 7.69 C-0.42 6.46, 0.81 5.38, 1.55 4.27 C2.28 3.16, 3.05 1.57, 4.1 1.03 C5.14 0.5, 6.89 1.24, 7.81 1.04 C8.73 0.84, 9.43 -0.03, 9.61 -0.15 M5.87 0.55 C6.97 0.82, 8.82 1.96, 9.83 2.99 C10.84 4.01, 11.82 5.51, 11.93 6.72 C12.04 7.93, 11.07 9.09, 10.5 10.24 C9.93 11.38, 9.77 13.2, 8.51 13.59 C7.25 13.97, 4.01 13.31, 2.93 12.57 C1.85 11.84, 2.68 10.48, 2.01 9.17 C1.34 7.85, -0.91 5.74, -1.08 4.68 C-1.25 3.61, -0.38 3.78, 0.99 2.79 C2.37 1.8, 6.1 -1.06, 7.17 -1.25 C8.23 -1.44, 7.69 1.48, 7.37 1.63" stroke="none" stroke-width="0" fill="#fff"></path><path d="M4.08 0.39 C5.37 -0.29, 7.34 -0.96, 8.65 -0.51 C9.96 -0.06, 11.34 1.65, 11.94 3.09 C12.54 4.52, 12.33 6.72, 12.25 8.09 C12.18 9.47, 12.37 10.25, 11.49 11.36 C10.62 12.46, 8.31 14.44, 6.98 14.72 C5.65 15, 4.68 14.05, 3.5 13.03 C2.32 12.01, 0.38 10.1, -0.08 8.6 C-0.54 7.1, 0.18 5.26, 0.74 4.02 C1.3 2.79, 2.59 1.77, 3.3 1.18 C4 0.59, 4.95 0.51, 4.98 0.47 M9.7 0.07 C11.16 0.34, 11.63 1.95, 12.29 3.23 C12.95 4.52, 13.96 6.18, 13.66 7.78 C13.36 9.38, 11.81 11.63, 10.49 12.82 C9.17 14.02, 7.38 15.2, 5.73 14.95 C4.08 14.71, 1.6 12.71, 0.62 11.33 C-0.37 9.94, -0.09 8.04, -0.19 6.64 C-0.28 5.23, -0.77 4.14, 0.06 2.91 C0.89 1.68, 3.48 -0.61, 4.8 -0.75 C6.12 -0.89, 7.18 1.79, 7.98 2.06 C8.79 2.34, 9.37 1.2, 9.65 0.91" stroke="#0a11d3" stroke-width="1" fill="none"></path></g><g stroke-linecap="round" transform="translate(1209.4843096242025 547.0624586930115) rotate(0 6.423028523489847 6.97095218120802)"><path d="M4.94 -0.57 C6.29 -0.96, 8.25 0.61, 9.34 1.17 C10.43 1.73, 10.85 1.49, 11.47 2.79 C12.09 4.09, 13.27 7.53, 13.05 8.97 C12.84 10.42, 11.37 10.77, 10.17 11.46 C8.97 12.14, 7.04 12.87, 5.85 13.07 C4.67 13.28, 4 13.44, 3.07 12.68 C2.14 11.93, 0.79 9.99, 0.28 8.54 C-0.23 7.09, -0.86 5.52, 0.01 3.97 C0.89 2.42, 4.53 0, 5.56 -0.76 C6.58 -1.52, 6.22 -0.91, 6.15 -0.6 M4.1 1.55 C5.31 1.18, 7.27 1.23, 8.39 1.62 C9.5 2, 10.11 2.65, 10.8 3.86 C11.49 5.08, 12.86 7.59, 12.52 8.91 C12.18 10.23, 9.7 11.17, 8.77 11.79 C7.84 12.41, 8.3 12.81, 6.95 12.64 C5.6 12.47, 2.02 11.44, 0.64 10.78 C-0.74 10.12, -1.52 10.19, -1.31 8.67 C-1.09 7.15, 0.75 2.81, 1.92 1.65 C3.1 0.49, 5.46 2.09, 5.76 1.71 C6.06 1.32, 3.73 -0.58, 3.71 -0.68" stroke="none" stroke-width="0" fill="#fff"></path><path d="M4.26 0.05 C5.36 -0.57, 7.13 -0.12, 8.25 0.46 C9.37 1.04, 10.15 2.42, 10.98 3.51 C11.81 4.59, 13.25 5.44, 13.24 6.95 C13.23 8.46, 11.83 11.37, 10.92 12.57 C10.02 13.76, 9.19 14.15, 7.8 14.13 C6.4 14.11, 3.78 13.33, 2.56 12.44 C1.34 11.55, 0.93 10.07, 0.49 8.81 C0.05 7.54, -0.77 6.24, -0.07 4.84 C0.63 3.45, 4.04 1.22, 4.7 0.44 C5.36 -0.33, 3.8 0.21, 3.87 0.19 M7.96 -0.51 C9.31 -0.33, 11.7 0.55, 12.56 1.9 C13.43 3.24, 13.42 5.74, 13.14 7.55 C12.85 9.36, 12.09 11.81, 10.88 12.76 C9.66 13.71, 7.22 13.4, 5.86 13.24 C4.5 13.07, 3.8 12.49, 2.7 11.76 C1.59 11.02, -0.42 10.26, -0.76 8.84 C-1.1 7.42, 0.12 4.33, 0.66 3.22 C1.19 2.12, 1.14 2.69, 2.45 2.21 C3.77 1.74, 7.49 0.82, 8.53 0.36 C9.57 -0.1, 8.77 -0.48, 8.69 -0.57" stroke="#0a11d3" stroke-width="1" fill="none"></path></g><g stroke-linecap="round" transform="translate(1209.4843096242025 580.3232598675082) rotate(0 6.423028523489847 6.97095218120802)"><path d="M6.48 0.74 C7.58 0.55, 8.45 -0.39, 9.53 0.46 C10.61 1.31, 12.55 4.42, 12.95 5.84 C13.35 7.26, 12.66 7.89, 11.95 8.98 C11.24 10.08, 9.73 11.56, 8.68 12.42 C7.63 13.28, 6.84 14.31, 5.62 14.15 C4.4 13.99, 2.45 12.65, 1.37 11.45 C0.28 10.25, -1.05 8.67, -0.88 6.95 C-0.7 5.23, 1.13 2.41, 2.41 1.12 C3.69 -0.17, 6.06 -0.67, 6.82 -0.77 C7.58 -0.88, 7.13 0.29, 6.98 0.47 M6.77 1.05 C7.95 0.96, 8.91 1.29, 9.91 2.3 C10.91 3.3, 12.74 5.71, 12.76 7.09 C12.78 8.47, 10.72 9.65, 10.03 10.56 C9.35 11.48, 9.99 12.36, 8.65 12.58 C7.3 12.81, 3.58 12.27, 1.97 11.92 C0.37 11.57, -0.82 11.91, -0.96 10.47 C-1.1 9.03, 0.27 4.62, 1.13 3.27 C1.98 1.93, 3.3 3.09, 4.19 2.39 C5.07 1.69, 5.77 -0.59, 6.44 -0.92 C7.1 -1.24, 8.09 0.18, 8.19 0.43" stroke="none" stroke-width="0" fill="#fff"></path><path d="M5.67 0.38 C6.72 0.29, 7.85 1.01, 9.05 1.65 C10.25 2.28, 12.32 2.76, 12.86 4.18 C13.4 5.6, 12.71 8.67, 12.28 10.18 C11.84 11.69, 11.46 12.7, 10.25 13.25 C9.03 13.79, 6.38 13.8, 4.96 13.47 C3.54 13.14, 2.64 12.25, 1.72 11.27 C0.79 10.29, -0.67 9.06, -0.59 7.59 C-0.51 6.11, 1.2 3.73, 2.2 2.42 C3.2 1.11, 4.5 0.26, 5.41 -0.26 C6.33 -0.77, 7.49 -0.93, 7.68 -0.69 M6.3 -0.78 C7.61 -0.96, 8.93 0.07, 9.92 1.13 C10.91 2.2, 12.01 4.34, 12.21 5.6 C12.42 6.86, 11.59 7.63, 11.13 8.69 C10.66 9.74, 10.57 11.11, 9.43 11.94 C8.29 12.78, 5.58 13.93, 4.28 13.68 C2.98 13.43, 2.55 11.32, 1.66 10.45 C0.77 9.58, -1.14 9.74, -1.06 8.45 C-0.98 7.15, 0.95 4.22, 2.15 2.68 C3.35 1.14, 5.55 -0.2, 6.14 -0.78 C6.73 -1.36, 5.65 -0.96, 5.67 -0.8" stroke="#0a11d3" stroke-width="1" fill="none"></path></g><g transform="translate(1124.818181818182 613.4999999999999) rotate(0 58.84797668457031 10)"><text x="0" y="0" font-family="Virgil, Segoe UI Emoji" font-size="16px" fill="#000000" text-anchor="start" style="white-space: pre;" direction="ltr" dominant-baseline="text-before-edge">SQL Database</text></g><g stroke-linecap="round" transform="translate(1217.045454545454 77.59090909090904) rotate(0 80.5 34.999999999999986)"><path d="M17.5 0 M17.5 0 C64.1 2.29, 106.77 -0.68, 143.5 0 M17.5 0 C61.63 0.22, 104.13 0.42, 143.5 0 M143.5 0 C156.27 1.91, 162.72 4.02, 161 17.5 M143.5 0 C156.57 -0.13, 162.01 6.67, 161 17.5 M161 17.5 C159.12 25.79, 160.5 36.77, 161 52.5 M161 17.5 C160.55 24.48, 160.96 33.2, 161 52.5 M161 52.5 C160.96 63.1, 154.7 69.01, 143.5 70 M161 52.5 C161.02 62.65, 153.61 69.06, 143.5 70 M143.5 70 C114.85 68.05, 88.45 70.07, 17.5 70 M143.5 70 C110.23 71.64, 77.89 71.79, 17.5 70 M17.5 70 C6.65 71.81, 1.33 65.89, 0 52.5 M17.5 70 C7.58 69.81, -1.41 63.8, 0 52.5 M0 52.5 C0.24 43.98, -0.18 34.84, 0 17.5 M0 52.5 C0.35 43.34, 0.18 33.51, 0 17.5 M0 17.5 C1.33 7.61, 7.1 -1.22, 17.5 0 M0 17.5 C0.51 8.08, 4.23 2.21, 17.5 0" stroke="#000000" stroke-width="1" fill="none"></path></g><g transform="translate(1229.2155137495556 100.59090909090904) rotate(0 68.32994079589844 11.999999999999986)"><text x="68.32994079589844" y="0" font-family="Virgil, Segoe UI Emoji" font-size="20px" fill="#000000" text-anchor="middle" style="white-space: pre;" direction="ltr" dominant-baseline="text-before-edge">Grade History</text></g><g transform="translate(1239.9846357865758 151.31818181818187) rotate(0 55.729949951171875 36)"><text x="0" y="0" font-family="Virgil, Segoe UI Emoji" font-size="20px" fill="#000000" text-anchor="start" style="white-space: pre;" direction="ltr" dominant-baseline="text-before-edge">- grade</text><text x="0" y="24" font-family="Virgil, Segoe UI Emoji" font-size="20px" fill="#000000" text-anchor="start" style="white-space: pre;" direction="ltr" dominant-baseline="text-before-edge">- fromDate</text><text x="0" y="48" font-family="Virgil, Segoe UI Emoji" font-size="20px" fill="#000000" text-anchor="start" style="white-space: pre;" direction="ltr" dominant-baseline="text-before-edge">- toDate</text></g><g stroke-linecap="round"><g transform="translate(874.8181818181816 188.04545454545456) rotate(0 168.4305290896972 -51.8301273336109)"><path d="M1.12 0.58 C21.35 -12.42, 64.55 -61.28, 120.46 -78.4 C176.38 -95.53, 300.63 -98.05, 336.61 -102.18 M0.25 -0.16 C20.44 -13.46, 63.88 -62.82, 119.76 -80.16 C175.63 -97.51, 299.43 -100.54, 335.5 -104.24" stroke="#000000" stroke-width="1" fill="none"></path></g><g transform="translate(874.8181818181816 188.04545454545456) rotate(0 168.4305290896972 -51.8301273336109)"><path d="M309.04 -91.31 C315.41 -96.15, 321.31 -99.24, 334.68 -106.03 M308.69 -92.37 C312.66 -93.45, 318.92 -96.5, 335.87 -104.57" stroke="#000000" stroke-width="1" fill="none"></path></g><g transform="translate(874.8181818181816 188.04545454545456) rotate(0 168.4305290896972 -51.8301273336109)"><path d="M307.64 -111.78 C314.25 -112.06, 320.46 -110.56, 334.68 -106.03 M307.29 -112.85 C311.58 -109.78, 318.12 -108.69, 335.87 -104.57" stroke="#000000" stroke-width="1" fill="none"></path></g></g><mask></mask><g transform="translate(949.8227532126685 66.95454545454541) rotate(0 74.35995483398438 12)"><text x="0" y="0" font-family="Virgil, Segoe UI Emoji" font-size="20px" fill="#000000" text-anchor="start" style="white-space: pre;" direction="ltr" dominant-baseline="text-before-edge">has/had Grade</text></g><g transform="translate(849.1163746226918 157.86363636363643) rotate(0 13.349990844726562 12)"><text x="0" y="0" font-family="Virgil, Segoe UI Emoji" font-size="20px" fill="#000000" text-anchor="start" style="white-space: pre;" direction="ltr" dominant-baseline="text-before-edge">1..*</text></g><g transform="translate(1185.1045546098185 49.681818181818215) rotate(0 2.7099990844726562 12)"><text x="0" y="0" font-family="Virgil, Segoe UI Emoji" font-size="20px" fill="#000000" text-anchor="start" style="white-space: pre;" direction="ltr" dominant-baseline="text-before-edge">1</text></g></svg>